<svg viewBox="0 0 22.8342 30.85" fill="none" xmlns="http://www.w3.org/2000/svg">
  <path d="M11.4221 0C5.12441 0 0 5.08363 0 11.3312V27.4974C0 29.3478 1.51426 30.85 3.3795 30.85C5.24475 30.85 6.75901 29.3478 6.75901 27.4974V21.6278H16.0752V27.4974C16.0752 29.3478 17.5895 30.85 19.4547 30.85C21.32 30.85 22.8342 29.3478 22.8342 27.4974V11.3312C22.8342 5.08363 17.7098 0 11.4121 0H11.4221ZM16.0852 14.9226H6.75901V11.3312C6.75901 8.78444 8.8549 6.70522 11.4221 6.70522C13.9893 6.70522 16.0852 8.78444 16.0852 11.3312V14.9226Z" fill="currentColor"/>
</svg>
